Coordinates
version=1
nRows=10
nColumns=22
inDegrees=yes

Units are S.I. units (second, meters, Newtons, ...)
If the header above contains a line with 'inDegrees', this indicates whether rotational values are in degrees (yes) or radians (no).

endheader
time	pelvis_tilt	pelvis_list	pelvis_rotation	pelvis_tx	pelvis_ty	pelvis_tz	hip_flexion_r	hip_adduction_r	hip_rotation_r	knee_angle_r	ankle_angle_r	subtalar_angle_r	hip_flexion_l	hip_adduction_l	hip_rotation_l	knee_angle_l	ankle_angle_l	subtalar_angle_l	lumbar_extension	lumbar_bending	lumbar_rotation
      0.01000000	     -1.76072303	     -4.47836143	      0.70714736	     -1.68627727	      1.01525446	     -0.07982030	      0.85695606	      2.93756685	     -3.63608797	    -10.14644812	      7.91020060	      1.40681497	     -0.97547790	     -7.33775690	    -12.98129704	     -8.48636869	     10.40615525	      1.23944528	     -1.00957353	      1.00248607	     -1.38302564
      0.02000000	     -1.76498584	     -4.48643143	      0.63307953	     -1.68622446	      1.01524195	     -0.07959858	      0.84131315	      2.95517593	     -3.57527242	    -10.10947897	      7.90492128	      1.41129361	     -0.97445446	     -7.35547864	    -13.06225051	     -8.51653886	     10.41680083	      1.23419007	     -1.00370401	      1.00314764	     -1.38707154
      0.03000000	     -1.77251510	     -4.50303196	      0.54246096	     -1.68615135	      1.01522092	     -0.07931929	      0.82741356	      2.98425119	     -3.50331446	    -10.07030418	      7.89451320	      1.41473436	     -0.97816338	     -7.38352121	    -13.15438116	     -8.54009065	     10.43480899	      1.22599228	     -0.99286005	      1.01191629	     -1.39154975
      0.04000000	     -1.77990252	     -4.52203725	      0.43799011	     -1.68606074	      1.01519760	     -0.07898928	      0.81044206	      3.01816701	     -3.41796362	    -10.02715548	      7.88208594	      1.41729304	     -0.98523565	     -7.41591814	    -13.26127725	     -8.56588249	     10.45377842	      1.21547778	     -0.98050368	      1.02099199	     -1.39159473
      0.05000000	     -1.78655686	     -4.54331082	      0.32187153	     -1.68595949	      1.01517561	     -0.07861886	      0.79160618	      3.05629475	     -3.32291390	     -9.98252168	      7.86876765	      1.41903262	     -0.99874423	     -7.45082073	    -13.37851735	     -8.58656459	     10.47311406	      1.20328426	     -0.96783125	      1.03209111	     -1.38848069
      0.06000000	     -1.79124283	     -4.56633491	      0.19953227	     -1.68584019	      1.01515652	     -0.07821500	      0.76830304	      3.09788102	     -3.22141586	     -9.93543723	      7.85536042	      1.42024447	     -1.01820898	     -7.48853883	    -13.50326331	     -8.60504765	     10.49100129	      1.18920056	     -0.95443234	      1.04335453	     -1.38027408
      0.07000000	     -1.79421728	     -4.59078642	      0.07565464	     -1.68570518	      1.01513804	     -0.07778846	      0.74110143	      3.14242898	     -3.11910138	     -9.88652322	      7.84302430	      1.42103586	     -1.04338399	     -7.52800166	    -13.63081394	     -8.61889400	     10.50678291	      1.17328036	     -0.94033036	      1.05443748	     -1.36863410
      0.08000000	     -1.79400726	     -4.61699870	     -0.05003580	     -1.68556335	      1.01512545	     -0.07734639	      0.71158968	      3.18940158	     -3.01549513	     -9.84007157	      7.82882698	      1.42144191	     -1.07571224	     -7.56931541	    -13.75962820	     -8.62770552	     10.52190257	      1.15486827	     -0.92903210	      1.06854055	     -1.34969731
      0.09000000	     -1.79146592	     -4.64318166	     -0.16870442	     -1.68541719	      1.01511566	     -0.07690274	      0.67981485	      3.23698448	     -2.92095236	     -9.79518267	      7.81626770	      1.42109085	     -1.11170860	     -7.61014100	    -13.88067453	     -8.63180519	     10.53430261	      1.13483986	     -0.91911754	      1.08147737	     -1.33167383
      0.10000000	     -1.78602812	     -4.67017920	     -0.28121934	     -1.68526806	      1.01511015	     -0.07646353	      0.64612538	      3.28525674	     -2.83214715	     -9.75317595	      7.80336031	      1.41993739	     -1.15107682	     -7.65174217	    -13.99532122	     -8.63395225	     10.54515492	      1.11205876	     -0.91285767	      1.09598993	     -1.31055294
